<svg id="Layer_5" enable-background="new 0 0 64 64" height="512" viewBox="0 0 64 64" width="512" xmlns="http://www.w3.org/2000/svg" xmlns:xlink="http://www.w3.org/1999/xlink"><linearGradient id="SVGID_1_" gradientUnits="userSpaceOnUse" x1="32" x2="32" y1="63" y2="1"><stop offset="0" stop-color="#9f2fff"/><stop offset="1" stop-color="#0bb1d3"/></linearGradient><path d="m43 15h-2v-2h2zm0 2h-2v2h2zm-20 20h-2v2h2zm0-4h-2v2h2zm4-19c0-2.757 2.243-5 5-5s5 2.243 5 5-2.243 5-5 5-5-2.243-5-5zm2 0c0 1.654 1.346 3 3 3s3-1.346 3-3-1.346-3-3-3-3 1.346-3 3zm-2 12c0-2.757 2.243-5 5-5s5 2.243 5 5-2.243 5-5 5-5-2.243-5-5zm2 0c0 1.654 1.346 3 3 3s3-1.346 3-3-1.346-3-3-3-3 1.346-3 3zm-2 12c0-2.757 2.243-5 5-5s5 2.243 5 5-2.243 5-5 5-5-2.243-5-5zm2 0c0 1.654 1.346 3 3 3s3-1.346 3-3-1.346-3-3-3-3 1.346-3 3zm14.899 23h15.101v2h-54v-2h15.101c.465-2.279 2.484-4 4.899-4h2v-10h-5c-2.534 0-4.611-1.902-4.934-4.349l-8.066-4.033v-5.618h8v-2.382l-8-4v-5.618h8v-2.382l-8-4v-5.618h8.101c.465-2.279 2.485-4 4.899-4h1v-1c0-1.654 1.346-3 3-3h12c1.654 0 3 1.346 3 3v1h1c2.414 0 4.434 1.721 4.899 4h8.101v5.618l-8 4v2.382h8v5.618l-8 4v2.382h8v5.618l-8.066 4.033c-.323 2.447-2.4 4.349-4.934 4.349h-5v10h2c2.414 0 4.434 1.721 4.899 4zm3.101-26v5.382l6-3v-2.382zm0-12v5.382l6-3v-2.382zm6-12h-6v5.382l6-3zm-36 5.382v-5.382h-6v2.382zm0 12v-5.382h-6v2.382zm-6 9 6 3v-5.382h-6zm14-32.382h14v-1c0-.552-.449-1-1-1h-12c-.551 0-1 .448-1 1zm-4 39.816v-3.816h2v4h18v-24h2v23.816c1.161-.414 2-1.514 2-2.816v-32c0-1.302-.839-2.402-2-2.816v3.816h-2v-4h-18v24h-2v-23.816c-1.161.414-2 1.514-2 2.816v32c0 1.302.839 2.402 2 2.816zm8 12.184h6v-10h-6zm-6.816 4h19.631c-.414-1.161-1.514-2-2.816-2h-13.999c-1.302 0-2.402.839-2.816 2zm-21.184 2h2v-2h-2zm60 0h2v-2h-2zm-30-14v2h2v-2zm0 6h2v-2h-2z" fill="url(#SVGID_1_)"/></svg>